<?xml version="1.0" encoding="utf-8"?>
<svg width="882" height="648" viewBox="0 0 2944 2162" fill="none" xmlns="http://www.w3.org/2000/svg">
  <path fill-rule="evenodd" clip-rule="evenodd" d="M1742.91 1219.89C1857.93 1138.38 1933 1004.21 1933 852.5C1933 603.972 1761 280.5 1483 139C1207.5 288 1033 603.972 1033 852.5C1033 1004.21 1108.07 1138.38 1223.09 1219.89C1218.98 1220.44 1214.95 1221.14 1211 1222C1123.61 1241.07 1017 1385.05 1017 1385.05H1281C1327.97 1385.05 1372.63 1367.41 1407.96 1347.62C1425.12 1370.32 1452.34 1385 1483 1385C1513.66 1385 1540.89 1370.32 1558.04 1347.62C1593.37 1367.41 1638.03 1385.05 1685 1385.05H1949C1949 1385.05 1842.39 1241.07 1755 1222C1751.05 1221.14 1747.02 1220.44 1742.91 1219.89Z" style="fill-rule: evenodd; fill: rgb(0, 91, 187);"/>
  <circle cx="1482.5" cy="878.5" r="311.5" style="fill: rgb(255, 213, 0);"/>
  <path d="M1212 745.5C1396.5 758.5 1505.5 713.5 1581 602C1581 602 1435.5 553 1347 602C1258.8 650.834 1212 745.5 1212 745.5Z" fill="#B4B4B4"/>
  <path d="M1728 718C1654 710 1588 686 1556.5 595.5C1556.5 595.5 1621.93 610.435 1688 670.614C1756.62 733.114 1728 718 1728 718Z" fill="#B4B4B4"/>
  <circle cx="1482.5" cy="878.5" r="311.5" stroke="#0A0000" stroke-width="40"/>
  <path d="M1544 745H1421L1451 775V865C1455.5 835.5 1511.5 834.5 1514.5 865L1522 775L1544 745Z" fill="black"/>
  <path d="M1098.12 785C1098.12 762.909 1116.03 745 1138.12 745H1423.02C1447.2 745 1465.85 766.292 1462.67 790.264L1437.91 976.764C1435.27 996.646 1418.31 1011.5 1398.26 1011.5H1138.12C1116.03 1011.5 1098.12 993.591 1098.12 971.5V785Z" fill="black"/>
  <path d="M1216.1 967.55V951.05H1210.55C1206.95 951.05 1204.55 948.5 1203.35 944.75L1180.55 876.05C1179.05 871.7 1177.25 868.55 1174.85 866.15C1170.35 861.5 1164.5 860 1157.9 860H1150.7V877.25H1155.5C1159.55 877.25 1162.7 878.75 1164.05 883.55L1167.2 894.65L1139 967.55H1159.55L1176.5 919.55L1185.5 948.5C1188.95 959.75 1194.8 967.55 1208 967.55H1216.1Z" fill="white"/>
  <path d="M1248.8 951.05V967.55H1304.8V951.05H1248.8Z" fill="white"/>
  <path d="M1503.01 790.267C1499.83 766.294 1518.48 745 1542.66 745H1827C1849.09 745 1867 762.909 1867 785V971.096C1867 993.187 1849.09 1011.1 1827 1011.1H1567.38C1547.33 1011.1 1530.37 996.244 1527.73 976.362L1503.01 790.267Z" fill="black"/>
  <path d="M1649.3 968V951.5H1643.75C1640.15 951.5 1637.75 948.95 1636.55 945.2L1613.75 876.5C1612.25 872.15 1610.45 869 1608.05 866.6C1603.55 861.95 1597.7 860.45 1591.1 860.45H1583.9V877.7H1588.7C1592.75 877.7 1595.9 879.2 1597.25 884L1600.4 895.1L1572.2 968H1592.75L1609.7 920L1618.7 948.95C1622.15 960.2 1628 968 1641.2 968H1649.3Z" fill="white"/>
  <path d="M1682 951.5V968H1738V951.5H1682Z" fill="white"/>
  <path d="M 245.923 1712.64 C 254.47 1701.19 264.812 1692.21 276.949 1685.72 C 289.085 1679.05 301.991 1675.72 315.667 1675.72 C 349.684 1675.72 374.897 1688.37 391.308 1713.67 C 407.889 1738.79 416.18 1774.26 416.18 1820.08 C 416.18 1848.45 411.906 1873.67 403.359 1895.72 C 394.983 1917.6 382.59 1934.78 366.18 1947.26 C 349.94 1959.56 330.282 1965.72 307.205 1965.72 C 293.53 1965.72 280.795 1962.81 269 1957 C 257.376 1951.36 247.633 1943.15 239.769 1932.38 L 236.692 1957 L 164.897 1957 L 164.897 1576.49 L 245.923 1568.03 L 245.923 1712.64 Z M 285.923 1906.74 C 317.034 1906.74 332.59 1878.2 332.59 1821.1 C 332.59 1799.22 330.88 1782.04 327.462 1769.56 C 324.043 1756.91 319.171 1748.11 312.846 1743.15 C 306.692 1738.03 299.085 1735.46 290.026 1735.46 C 273.274 1735.46 258.573 1745.97 245.923 1767 L 245.923 1881.87 C 251.222 1890.25 257.034 1896.49 263.359 1900.59 C 269.855 1904.69 277.376 1906.74 285.923 1906.74 Z" style="fill: rgb(0, 91, 187);"/>
  <path d="M 701.745 1878.54 C 701.745 1888.62 703.113 1896.06 705.848 1900.85 C 708.583 1905.46 713.198 1908.97 719.694 1911.36 L 703.027 1964.69 C 686.446 1963.15 672.686 1959.56 661.745 1953.92 C 650.976 1948.11 642.515 1939.74 636.361 1928.79 C 626.275 1940.93 613.198 1950.16 597.13 1956.49 C 581.233 1962.64 564.395 1965.72 546.617 1965.72 C 528.156 1965.72 511.916 1962.13 497.899 1954.95 C 484.053 1947.6 473.369 1937.51 465.848 1924.69 C 458.327 1911.7 454.566 1896.83 454.566 1880.08 C 454.566 1860.59 459.78 1843.92 470.207 1830.08 C 480.634 1816.23 495.763 1805.72 515.592 1798.54 C 535.421 1791.19 559.267 1787.51 587.13 1787.51 L 623.797 1787.51 L 623.797 1777.26 C 623.797 1749.39 605.848 1735.46 569.951 1735.46 C 560.891 1735.46 549.438 1736.74 535.592 1739.31 C 521.916 1741.87 508.498 1745.38 495.335 1749.82 L 476.617 1695.97 C 493.711 1689.48 511.745 1684.52 530.72 1681.1 C 549.694 1677.51 567.045 1675.72 582.771 1675.72 C 622.771 1675.72 652.6 1683.84 672.258 1700.08 C 691.916 1716.32 701.745 1740.25 701.745 1771.87 L 701.745 1878.54 Z M 574.566 1907.77 C 583.797 1907.77 593.113 1905.12 602.515 1899.82 C 611.916 1894.35 619.01 1887 623.797 1877.77 L 623.797 1833.67 L 603.797 1833.67 C 581.574 1833.67 565.079 1837.09 554.31 1843.92 C 543.54 1850.76 538.156 1860.93 538.156 1874.44 C 538.156 1885.03 541.318 1893.24 547.643 1899.05 C 554.139 1904.86 563.113 1907.77 574.566 1907.77 Z" style="fill: rgb(0, 91, 187);"/>
  <path d="M984.204 1711.64C992.751 1700.19 1003.09 1691.21 1015.23 1684.72C1027.37 1678.05 1040.27 1674.72 1053.95 1674.72C1087.97 1674.72 1113.18 1687.37 1129.59 1712.67C1146.17 1737.79 1154.46 1773.26 1154.46 1819.08C1154.46 1847.45 1150.19 1872.67 1141.64 1894.72C1133.26 1916.6 1120.87 1933.78 1104.46 1946.26C1088.22 1958.56 1068.56 1964.72 1045.49 1964.72C1031.81 1964.72 1019.08 1961.81 1007.28 1956C995.657 1950.36 985.914 1942.15 978.05 1931.38L974.974 1956H903.179V1575.49L984.204 1567.03V1711.64ZM1024.2 1905.74C1055.32 1905.74 1070.87 1877.2 1070.87 1820.1C1070.87 1798.22 1069.16 1781.04 1065.74 1768.56C1062.32 1755.91 1057.45 1747.11 1051.13 1742.15C1044.97 1737.03 1037.37 1734.46 1028.31 1734.46C1011.55 1734.46 996.854 1744.97 984.204 1766V1880.87C989.503 1889.25 995.315 1895.49 1001.64 1899.59C1008.14 1903.69 1015.66 1905.74 1024.2 1905.74Z" style="fill: rgb(0, 91, 187);"/>
  <path d="M1440.03 1877.54C1440.03 1887.62 1441.39 1895.06 1444.13 1899.85C1446.86 1904.46 1451.48 1907.97 1457.98 1910.36L1441.31 1963.69C1424.73 1962.15 1410.97 1958.56 1400.03 1952.92C1389.26 1947.11 1380.8 1938.74 1374.64 1927.79C1364.56 1939.93 1351.48 1949.16 1335.41 1955.49C1319.51 1961.64 1302.68 1964.72 1284.9 1964.72C1266.44 1964.72 1250.2 1961.13 1236.18 1953.95C1222.33 1946.6 1211.65 1936.51 1204.13 1923.69C1196.61 1910.7 1192.85 1895.83 1192.85 1879.08C1192.85 1859.59 1198.06 1842.92 1208.49 1829.08C1218.92 1815.23 1234.04 1804.72 1253.87 1797.54C1273.7 1790.19 1297.55 1786.51 1325.41 1786.51H1362.08V1776.26C1362.08 1748.39 1344.13 1734.46 1308.23 1734.46C1299.17 1734.46 1287.72 1735.74 1273.87 1738.31C1260.2 1740.87 1246.78 1744.38 1233.62 1748.82L1214.9 1694.97C1231.99 1688.48 1250.03 1683.52 1269 1680.1C1287.98 1676.51 1305.33 1674.72 1321.05 1674.72C1361.05 1674.72 1390.88 1682.84 1410.54 1699.08C1430.2 1715.32 1440.03 1739.25 1440.03 1770.87V1877.54ZM1312.85 1906.77C1322.08 1906.77 1331.39 1904.12 1340.8 1898.82C1350.2 1893.35 1357.29 1886 1362.08 1876.77V1832.67H1342.08C1319.86 1832.67 1303.36 1836.09 1292.59 1842.92C1281.82 1849.76 1276.44 1859.93 1276.44 1873.44C1276.44 1884.03 1279.6 1892.24 1285.92 1898.05C1292.42 1903.86 1301.39 1906.77 1312.85 1906.77Z" style="fill: rgb(0, 91, 187);"/>
  <path d="M1627.64 1906.77C1641.49 1906.77 1652.43 1904.63 1660.46 1900.36C1668.67 1895.91 1672.77 1889.5 1672.77 1881.13C1672.77 1875.15 1671.15 1870.27 1667.9 1866.51C1664.65 1862.58 1658.58 1858.91 1649.7 1855.49C1640.81 1851.9 1626.96 1847.54 1608.16 1842.41C1580.81 1835.06 1559.87 1824.97 1545.34 1812.15C1530.98 1799.33 1523.8 1781.56 1523.8 1758.82C1523.8 1742.41 1528.33 1727.88 1537.39 1715.23C1546.62 1702.58 1560.12 1692.67 1577.9 1685.49C1595.68 1678.31 1617.05 1674.72 1642 1674.72C1685.25 1674.72 1722 1685.74 1752.26 1707.79L1719.95 1755.49C1708.16 1748.31 1695.76 1742.67 1682.77 1738.56C1669.95 1734.46 1657.13 1732.41 1644.31 1732.41C1631.15 1732.41 1621.32 1734.21 1614.82 1737.79C1608.5 1741.21 1605.34 1746.43 1605.34 1753.44C1605.34 1758.22 1606.96 1762.24 1610.21 1765.49C1613.63 1768.74 1619.7 1772.07 1628.41 1775.49C1637.3 1778.91 1651.06 1783.26 1669.7 1788.56C1689.35 1794.03 1705.34 1800.1 1717.64 1806.77C1729.95 1813.26 1739.52 1821.98 1746.36 1832.92C1753.37 1843.69 1756.87 1857.62 1756.87 1874.72C1756.87 1893.86 1751.06 1910.27 1739.44 1923.95C1727.99 1937.45 1712.52 1947.62 1693.03 1954.46C1673.54 1961.3 1651.92 1964.72 1628.16 1964.72C1602.69 1964.72 1579.78 1961.13 1559.44 1953.95C1539.1 1946.6 1521.58 1936.51 1506.87 1923.69L1547.64 1878.05C1558.93 1886.94 1571.32 1893.95 1584.82 1899.08C1598.33 1904.21 1612.6 1906.77 1627.64 1906.77Z" style="fill: rgb(0, 91, 187);"/>
  <path d="M1907.06 1710.62C1929.79 1686.68 1956.46 1674.72 1987.06 1674.72C2011.16 1674.72 2029.62 1681.81 2042.44 1696C2055.43 1710.02 2061.93 1730.02 2061.93 1756V1956H1980.9V1778.56C1980.9 1767.45 1980.05 1758.74 1978.34 1752.41C1976.8 1746.09 1974.15 1741.56 1970.39 1738.82C1966.63 1735.91 1961.41 1734.46 1954.75 1734.46C1946.54 1734.46 1938.59 1737.28 1930.9 1742.92C1923.21 1748.56 1915.26 1756.77 1907.06 1767.54V1956H1826.03V1575.49L1907.06 1567.54V1710.62Z" style="fill: rgb(0, 91, 187);"/>
  <path d="M2337.72 1956H2256.69V1575.49L2337.72 1567.03V1956ZM2425.67 1804.21L2522.59 1956H2430.28L2340.8 1806.77L2430.28 1683.69H2515.16L2425.67 1804.21Z" style="fill: rgb(0, 91, 187);"/>
  <path d="M2793.54 1877.54C2793.54 1887.62 2794.91 1895.06 2797.64 1899.85C2800.38 1904.46 2805 1907.97 2811.49 1910.36L2794.82 1963.69C2778.24 1962.15 2764.48 1958.56 2753.54 1952.92C2742.77 1947.11 2734.31 1938.74 2728.16 1927.79C2718.07 1939.93 2705 1949.16 2688.93 1955.49C2673.03 1961.64 2656.19 1964.72 2638.41 1964.72C2619.95 1964.72 2603.71 1961.13 2589.7 1953.95C2575.85 1946.6 2565.17 1936.51 2557.64 1923.69C2550.12 1910.7 2546.36 1895.83 2546.36 1879.08C2546.36 1859.59 2551.58 1842.92 2562 1829.08C2572.43 1815.23 2587.56 1804.72 2607.39 1797.54C2627.22 1790.19 2651.06 1786.51 2678.93 1786.51H2715.59V1776.26C2715.59 1748.39 2697.64 1734.46 2661.75 1734.46C2652.69 1734.46 2641.23 1735.74 2627.39 1738.31C2613.71 1740.87 2600.29 1744.38 2587.13 1748.82L2568.41 1694.97C2585.51 1688.48 2603.54 1683.52 2622.52 1680.1C2641.49 1676.51 2658.84 1674.72 2674.57 1674.72C2714.57 1674.72 2744.4 1682.84 2764.06 1699.08C2783.71 1715.32 2793.54 1739.25 2793.54 1770.87V1877.54ZM2666.36 1906.77C2675.59 1906.77 2684.91 1904.12 2694.31 1898.82C2703.71 1893.35 2710.81 1886 2715.59 1876.77V1832.67H2695.59C2673.37 1832.67 2656.88 1836.09 2646.11 1842.92C2635.34 1849.76 2629.95 1859.93 2629.95 1873.44C2629.95 1884.03 2633.11 1892.24 2639.44 1898.05C2645.94 1903.86 2654.91 1906.77 2666.36 1906.77Z" style="fill: rgb(0, 91, 187);"/>
  <path d="M862 1819C862 1848.27 838.271 1872 809 1872C779.729 1872 756 1848.27 756 1819C756 1789.73 779.729 1766 809 1766C838.271 1766 862 1789.73 862 1819Z" style="fill: rgb(255, 213, 0);"/>
  <path d="M2215.5 1819C2215.5 1848.27 2191.77 1872 2162.5 1872C2133.23 1872 2109.5 1848.27 2109.5 1819C2109.5 1789.73 2133.23 1766 2162.5 1766C2191.77 1766 2215.5 1789.73 2215.5 1819Z" style="fill: rgb(255, 213, 0);"/>
</svg>