<svg width="128" height="128" viewBox="0 0 1472 1472" fill="none" xmlns="http://www.w3.org/2000/svg">
<path fill-rule="evenodd" clip-rule="evenodd" d="M995.911 1193.89C1110.93 1112.38 1186 978.206 1186 826.5C1186 577.972 1014 254.5 736 113C460.5 262 286 577.972 286 826.5C286 978.206 361.07 1112.38 476.089 1193.89C471.983 1194.44 467.949 1195.14 464 1196C376.611 1215.07 270 1359.05 270 1359.05H534C580.972 1359.05 625.631 1341.41 660.956 1321.62C678.115 1344.32 705.344 1359 736 1359C766.656 1359 793.885 1344.32 811.044 1321.62C846.369 1341.41 891.028 1359.05 938 1359.05H1202C1202 1359.05 1095.39 1215.07 1008 1196C1004.05 1195.14 1000.02 1194.44 995.911 1193.89Z" fill="url(#paint0_linear)"/>
<circle cx="735.5" cy="852.5" r="311.5" fill="white"/>
<path d="M443 750.417C662 765.866 791.382 712.388 881 579.881C881 579.881 708.293 521.649 603.244 579.881C498.55 637.916 443 750.417 443 750.417Z" fill="#B4B4B4"/>
<path d="M1039.99 748.282C914.862 734.745 803.264 694.135 750 541C750 541 860.633 566.272 972.355 668.101C1088.39 773.857 1039.99 748.282 1039.99 748.282Z" fill="#B4B4B4"/>
<circle cx="735.5" cy="852.5" r="311.5" stroke="#0A0000" stroke-width="40"/>
<path d="M797 719H674L704 749V839C708.5 809.5 764.5 808.5 767.5 839L775 749L797 719Z" fill="black"/>
<path d="M351.117 759C351.117 736.909 369.026 719 391.117 719H676.018C700.2 719 718.852 740.292 715.67 764.264L690.91 950.764C688.27 970.646 671.314 985.5 651.258 985.5H391.117C369.026 985.5 351.117 967.591 351.117 945.5V759Z" fill="black"/>
<path d="M756.012 764.267C752.828 740.294 771.481 719 795.664 719H1080C1102.09 719 1120 736.909 1120 759V945.096C1120 967.187 1102.09 985.096 1080 985.096H820.381C800.325 985.096 783.37 970.244 780.729 950.362L756.012 764.267Z" fill="black"/>
<path d="M1024 952V921.47H1013.71C1007.03 921.47 1002.58 916.752 1000.35 909.813L958.064 782.697C955.282 774.649 951.944 768.82 947.492 764.379C939.146 755.775 928.296 753 916.054 753H902.7V784.918H911.603C919.115 784.918 924.957 787.693 927.461 796.575L933.303 817.113L881 952H919.115L950.553 863.185L967.245 916.752C973.644 937.568 984.494 952 1008.98 952H1024Z" fill="white"/>
<path d="M590 952V921.47H579.706C573.029 921.47 568.578 916.752 566.352 909.813L524.064 782.697C521.282 774.649 517.944 768.82 513.492 764.379C505.146 755.775 494.296 753 482.054 753H468.7V784.918H477.603C485.115 784.918 490.957 787.693 493.461 796.575L499.303 817.113L447 952H485.115L516.553 863.185L533.245 916.752C539.644 937.568 550.494 952 574.977 952H590Z" fill="white"/>
<defs>
<linearGradient id="paint0_linear" x1="752" y1="113" x2="752" y2="1359.52" gradientUnits="userSpaceOnUse">
<stop stop-color="#E41F26"/>
<stop offset="1" stop-color="#B70000"/>
</linearGradient>
</defs>
</svg>
